<?xml version="1.0" encoding="utf-8" standalone="no"?>
<!DOCTYPE svg PUBLIC "-//W3C//DTD SVG 1.1//EN"
  "http://www.w3.org/Graphics/SVG/1.1/DTD/svg11.dtd">
<svg xmlns:xlink="http://www.w3.org/1999/xlink" width="432pt" height="360pt" viewBox="0 0 432 360" xmlns="http://www.w3.org/2000/svg" version="1.1">
 <metadata>
  <rdf:RDF xmlns:dc="http://purl.org/dc/elements/1.1/" xmlns:cc="http://creativecommons.org/ns#" xmlns:rdf="http://www.w3.org/1999/02/22-rdf-syntax-ns#">
   <cc:Work>
    <dc:type rdf:resource="http://purl.org/dc/dcmitype/StillImage"/>
    <dc:date>2022-12-12T22:14:37.537439</dc:date>
    <dc:format>image/svg+xml</dc:format>
    <dc:creator>
     <cc:Agent>
      <dc:title>Matplotlib v3.6.1, https://matplotlib.org/</dc:title>
     </cc:Agent>
    </dc:creator>
   </cc:Work>
  </rdf:RDF>
 </metadata>
 <defs>
  <style type="text/css">*{stroke-linejoin: round; stroke-linecap: butt}</style>
 </defs>
 <g id="figure_1">
  <g id="patch_1">
   <path d="M 0 360 
L 432 360 
L 432 0 
L 0 0 
z
" style="fill: #ffffff"/>
  </g>
  <g id="axes_1">
   <g id="patch_2">
    <path d="M 56.9 317.32 
L 352.48 317.32 
L 352.48 27.6 
L 56.9 27.6 
z
" style="fill: #e5e5e5"/>
   </g>
   <g id="matplotlib.axis_1">
    <g id="xtick_1">
     <g id="line2d_1">
      <path d="M 70.335455 317.32 
L 70.335455 27.6 
" clip-path="url(#p34bcd01bca)" style="fill: none; stroke: #ffffff; stroke-width: 0.8; stroke-linecap: square"/>
     </g>
     <g id="line2d_2">
      <defs>
       <path id="mcc64292e66" d="M 0 0 
L 0 3.5 
" style="stroke: #555555; stroke-width: 0.8"/>
      </defs>
      <g>
       <use xlink:href="#mcc64292e66" x="70.335455" y="317.32" style="fill: #555555; stroke: #555555; stroke-width: 0.8"/>
      </g>
     </g>
     <g id="text_1">
      <!-- 0 -->
      <g style="fill: #555555" transform="translate(67.154205 331.918437) scale(0.1 -0.1)">
       <defs>
        <path id="DejaVuSans-30" d="M 2034 4250 
Q 1547 4250 1301 3770 
Q 1056 3291 1056 2328 
Q 1056 1369 1301 889 
Q 1547 409 2034 409 
Q 2525 409 2770 889 
Q 3016 1369 3016 2328 
Q 3016 3291 2770 3770 
Q 2525 4250 2034 4250 
z
M 2034 4750 
Q 2819 4750 3233 4129 
Q 3647 3509 3647 2328 
Q 3647 1150 3233 529 
Q 2819 -91 2034 -91 
Q 1250 -91 836 529 
Q 422 1150 422 2328 
Q 422 3509 836 4129 
Q 1250 4750 2034 4750 
z
" transform="scale(0.015625)"/>
       </defs>
       <use xlink:href="#DejaVuSans-30"/>
      </g>
     </g>
    </g>
    <g id="xtick_2">
     <g id="line2d_3">
      <path d="M 122.776729 317.32 
L 122.776729 27.6 
" clip-path="url(#p34bcd01bca)" style="fill: none; stroke: #ffffff; stroke-width: 0.8; stroke-linecap: square"/>
     </g>
     <g id="line2d_4">
      <g>
       <use xlink:href="#mcc64292e66" x="122.776729" y="317.32" style="fill: #555555; stroke: #555555; stroke-width: 0.8"/>
      </g>
     </g>
     <g id="text_2">
      <!-- 1000 -->
      <g style="fill: #555555" transform="translate(110.051729 331.918437) scale(0.1 -0.1)">
       <defs>
        <path id="DejaVuSans-31" d="M 794 531 
L 1825 531 
L 1825 4091 
L 703 3866 
L 703 4441 
L 1819 4666 
L 2450 4666 
L 2450 531 
L 3481 531 
L 3481 0 
L 794 0 
L 794 531 
z
" transform="scale(0.015625)"/>
       </defs>
       <use xlink:href="#DejaVuSans-31"/>
       <use xlink:href="#DejaVuSans-30" x="63.623047"/>
       <use xlink:href="#DejaVuSans-30" x="127.246094"/>
       <use xlink:href="#DejaVuSans-30" x="190.869141"/>
      </g>
     </g>
    </g>
    <g id="xtick_3">
     <g id="line2d_5">
      <path d="M 175.218004 317.32 
L 175.218004 27.6 
" clip-path="url(#p34bcd01bca)" style="fill: none; stroke: #ffffff; stroke-width: 0.8; stroke-linecap: square"/>
     </g>
     <g id="line2d_6">
      <g>
       <use xlink:href="#mcc64292e66" x="175.218004" y="317.32" style="fill: #555555; stroke: #555555; stroke-width: 0.8"/>
      </g>
     </g>
     <g id="text_3">
      <!-- 2000 -->
      <g style="fill: #555555" transform="translate(162.493004 331.918437) scale(0.1 -0.1)">
       <defs>
        <path id="DejaVuSans-32" d="M 1228 531 
L 3431 531 
L 3431 0 
L 469 0 
L 469 531 
Q 828 903 1448 1529 
Q 2069 2156 2228 2338 
Q 2531 2678 2651 2914 
Q 2772 3150 2772 3378 
Q 2772 3750 2511 3984 
Q 2250 4219 1831 4219 
Q 1534 4219 1204 4116 
Q 875 4013 500 3803 
L 500 4441 
Q 881 4594 1212 4672 
Q 1544 4750 1819 4750 
Q 2544 4750 2975 4387 
Q 3406 4025 3406 3419 
Q 3406 3131 3298 2873 
Q 3191 2616 2906 2266 
Q 2828 2175 2409 1742 
Q 1991 1309 1228 531 
z
" transform="scale(0.015625)"/>
       </defs>
       <use xlink:href="#DejaVuSans-32"/>
       <use xlink:href="#DejaVuSans-30" x="63.623047"/>
       <use xlink:href="#DejaVuSans-30" x="127.246094"/>
       <use xlink:href="#DejaVuSans-30" x="190.869141"/>
      </g>
     </g>
    </g>
    <g id="xtick_4">
     <g id="line2d_7">
      <path d="M 227.659278 317.32 
L 227.659278 27.6 
" clip-path="url(#p34bcd01bca)" style="fill: none; stroke: #ffffff; stroke-width: 0.8; stroke-linecap: square"/>
     </g>
     <g id="line2d_8">
      <g>
       <use xlink:href="#mcc64292e66" x="227.659278" y="317.32" style="fill: #555555; stroke: #555555; stroke-width: 0.8"/>
      </g>
     </g>
     <g id="text_4">
      <!-- 3000 -->
      <g style="fill: #555555" transform="translate(214.934278 331.918437) scale(0.1 -0.1)">
       <defs>
        <path id="DejaVuSans-33" d="M 2597 2516 
Q 3050 2419 3304 2112 
Q 3559 1806 3559 1356 
Q 3559 666 3084 287 
Q 2609 -91 1734 -91 
Q 1441 -91 1130 -33 
Q 819 25 488 141 
L 488 750 
Q 750 597 1062 519 
Q 1375 441 1716 441 
Q 2309 441 2620 675 
Q 2931 909 2931 1356 
Q 2931 1769 2642 2001 
Q 2353 2234 1838 2234 
L 1294 2234 
L 1294 2753 
L 1863 2753 
Q 2328 2753 2575 2939 
Q 2822 3125 2822 3475 
Q 2822 3834 2567 4026 
Q 2313 4219 1838 4219 
Q 1578 4219 1281 4162 
Q 984 4106 628 3988 
L 628 4550 
Q 988 4650 1302 4700 
Q 1616 4750 1894 4750 
Q 2613 4750 3031 4423 
Q 3450 4097 3450 3541 
Q 3450 3153 3228 2886 
Q 3006 2619 2597 2516 
z
" transform="scale(0.015625)"/>
       </defs>
       <use xlink:href="#DejaVuSans-33"/>
       <use xlink:href="#DejaVuSans-30" x="63.623047"/>
       <use xlink:href="#DejaVuSans-30" x="127.246094"/>
       <use xlink:href="#DejaVuSans-30" x="190.869141"/>
      </g>
     </g>
    </g>
    <g id="xtick_5">
     <g id="line2d_9">
      <path d="M 280.100553 317.32 
L 280.100553 27.6 
" clip-path="url(#p34bcd01bca)" style="fill: none; stroke: #ffffff; stroke-width: 0.8; stroke-linecap: square"/>
     </g>
     <g id="line2d_10">
      <g>
       <use xlink:href="#mcc64292e66" x="280.100553" y="317.32" style="fill: #555555; stroke: #555555; stroke-width: 0.8"/>
      </g>
     </g>
     <g id="text_5">
      <!-- 4000 -->
      <g style="fill: #555555" transform="translate(267.375553 331.918437) scale(0.1 -0.1)">
       <defs>
        <path id="DejaVuSans-34" d="M 2419 4116 
L 825 1625 
L 2419 1625 
L 2419 4116 
z
M 2253 4666 
L 3047 4666 
L 3047 1625 
L 3713 1625 
L 3713 1100 
L 3047 1100 
L 3047 0 
L 2419 0 
L 2419 1100 
L 313 1100 
L 313 1709 
L 2253 4666 
z
" transform="scale(0.015625)"/>
       </defs>
       <use xlink:href="#DejaVuSans-34"/>
       <use xlink:href="#DejaVuSans-30" x="63.623047"/>
       <use xlink:href="#DejaVuSans-30" x="127.246094"/>
       <use xlink:href="#DejaVuSans-30" x="190.869141"/>
      </g>
     </g>
    </g>
    <g id="xtick_6">
     <g id="line2d_11">
      <path d="M 332.541827 317.32 
L 332.541827 27.6 
" clip-path="url(#p34bcd01bca)" style="fill: none; stroke: #ffffff; stroke-width: 0.8; stroke-linecap: square"/>
     </g>
     <g id="line2d_12">
      <g>
       <use xlink:href="#mcc64292e66" x="332.541827" y="317.32" style="fill: #555555; stroke: #555555; stroke-width: 0.8"/>
      </g>
     </g>
     <g id="text_6">
      <!-- 5000 -->
      <g style="fill: #555555" transform="translate(319.816827 331.918437) scale(0.1 -0.1)">
       <defs>
        <path id="DejaVuSans-35" d="M 691 4666 
L 3169 4666 
L 3169 4134 
L 1269 4134 
L 1269 2991 
Q 1406 3038 1543 3061 
Q 1681 3084 1819 3084 
Q 2600 3084 3056 2656 
Q 3513 2228 3513 1497 
Q 3513 744 3044 326 
Q 2575 -91 1722 -91 
Q 1428 -91 1123 -41 
Q 819 9 494 109 
L 494 744 
Q 775 591 1075 516 
Q 1375 441 1709 441 
Q 2250 441 2565 725 
Q 2881 1009 2881 1497 
Q 2881 1984 2565 2268 
Q 2250 2553 1709 2553 
Q 1456 2553 1204 2497 
Q 953 2441 691 2322 
L 691 4666 
z
" transform="scale(0.015625)"/>
       </defs>
       <use xlink:href="#DejaVuSans-35"/>
       <use xlink:href="#DejaVuSans-30" x="63.623047"/>
       <use xlink:href="#DejaVuSans-30" x="127.246094"/>
       <use xlink:href="#DejaVuSans-30" x="190.869141"/>
      </g>
     </g>
    </g>
    <g id="text_7">
     <!-- Messpunkte -->
     <g style="fill: #555555" transform="translate(168.6375 347.11625) scale(0.12 -0.12)">
      <defs>
       <path id="DejaVuSans-4d" d="M 628 4666 
L 1569 4666 
L 2759 1491 
L 3956 4666 
L 4897 4666 
L 4897 0 
L 4281 0 
L 4281 4097 
L 3078 897 
L 2444 897 
L 1241 4097 
L 1241 0 
L 628 0 
L 628 4666 
z
" transform="scale(0.015625)"/>
       <path id="DejaVuSans-65" d="M 3597 1894 
L 3597 1613 
L 953 1613 
Q 991 1019 1311 708 
Q 1631 397 2203 397 
Q 2534 397 2845 478 
Q 3156 559 3463 722 
L 3463 178 
Q 3153 47 2828 -22 
Q 2503 -91 2169 -91 
Q 1331 -91 842 396 
Q 353 884 353 1716 
Q 353 2575 817 3079 
Q 1281 3584 2069 3584 
Q 2775 3584 3186 3129 
Q 3597 2675 3597 1894 
z
M 3022 2063 
Q 3016 2534 2758 2815 
Q 2500 3097 2075 3097 
Q 1594 3097 1305 2825 
Q 1016 2553 972 2059 
L 3022 2063 
z
" transform="scale(0.015625)"/>
       <path id="DejaVuSans-73" d="M 2834 3397 
L 2834 2853 
Q 2591 2978 2328 3040 
Q 2066 3103 1784 3103 
Q 1356 3103 1142 2972 
Q 928 2841 928 2578 
Q 928 2378 1081 2264 
Q 1234 2150 1697 2047 
L 1894 2003 
Q 2506 1872 2764 1633 
Q 3022 1394 3022 966 
Q 3022 478 2636 193 
Q 2250 -91 1575 -91 
Q 1294 -91 989 -36 
Q 684 19 347 128 
L 347 722 
Q 666 556 975 473 
Q 1284 391 1588 391 
Q 1994 391 2212 530 
Q 2431 669 2431 922 
Q 2431 1156 2273 1281 
Q 2116 1406 1581 1522 
L 1381 1569 
Q 847 1681 609 1914 
Q 372 2147 372 2553 
Q 372 3047 722 3315 
Q 1072 3584 1716 3584 
Q 2034 3584 2315 3537 
Q 2597 3491 2834 3397 
z
" transform="scale(0.015625)"/>
       <path id="DejaVuSans-70" d="M 1159 525 
L 1159 -1331 
L 581 -1331 
L 581 3500 
L 1159 3500 
L 1159 2969 
Q 1341 3281 1617 3432 
Q 1894 3584 2278 3584 
Q 2916 3584 3314 3078 
Q 3713 2572 3713 1747 
Q 3713 922 3314 415 
Q 2916 -91 2278 -91 
Q 1894 -91 1617 61 
Q 1341 213 1159 525 
z
M 3116 1747 
Q 3116 2381 2855 2742 
Q 2594 3103 2138 3103 
Q 1681 3103 1420 2742 
Q 1159 2381 1159 1747 
Q 1159 1113 1420 752 
Q 1681 391 2138 391 
Q 2594 391 2855 752 
Q 3116 1113 3116 1747 
z
" transform="scale(0.015625)"/>
       <path id="DejaVuSans-75" d="M 544 1381 
L 544 3500 
L 1119 3500 
L 1119 1403 
Q 1119 906 1312 657 
Q 1506 409 1894 409 
Q 2359 409 2629 706 
Q 2900 1003 2900 1516 
L 2900 3500 
L 3475 3500 
L 3475 0 
L 2900 0 
L 2900 538 
Q 2691 219 2414 64 
Q 2138 -91 1772 -91 
Q 1169 -91 856 284 
Q 544 659 544 1381 
z
M 1991 3584 
L 1991 3584 
z
" transform="scale(0.015625)"/>
       <path id="DejaVuSans-6e" d="M 3513 2113 
L 3513 0 
L 2938 0 
L 2938 2094 
Q 2938 2591 2744 2837 
Q 2550 3084 2163 3084 
Q 1697 3084 1428 2787 
Q 1159 2491 1159 1978 
L 1159 0 
L 581 0 
L 581 3500 
L 1159 3500 
L 1159 2956 
Q 1366 3272 1645 3428 
Q 1925 3584 2291 3584 
Q 2894 3584 3203 3211 
Q 3513 2838 3513 2113 
z
" transform="scale(0.015625)"/>
       <path id="DejaVuSans-6b" d="M 581 4863 
L 1159 4863 
L 1159 1991 
L 2875 3500 
L 3609 3500 
L 1753 1863 
L 3688 0 
L 2938 0 
L 1159 1709 
L 1159 0 
L 581 0 
L 581 4863 
z
" transform="scale(0.015625)"/>
       <path id="DejaVuSans-74" d="M 1172 4494 
L 1172 3500 
L 2356 3500 
L 2356 3053 
L 1172 3053 
L 1172 1153 
Q 1172 725 1289 603 
Q 1406 481 1766 481 
L 2356 481 
L 2356 0 
L 1766 0 
Q 1100 0 847 248 
Q 594 497 594 1153 
L 594 3053 
L 172 3053 
L 172 3500 
L 594 3500 
L 594 4494 
L 1172 4494 
z
" transform="scale(0.015625)"/>
      </defs>
      <use xlink:href="#DejaVuSans-4d"/>
      <use xlink:href="#DejaVuSans-65" x="86.279297"/>
      <use xlink:href="#DejaVuSans-73" x="147.802734"/>
      <use xlink:href="#DejaVuSans-73" x="199.902344"/>
      <use xlink:href="#DejaVuSans-70" x="252.001953"/>
      <use xlink:href="#DejaVuSans-75" x="315.478516"/>
      <use xlink:href="#DejaVuSans-6e" x="378.857422"/>
      <use xlink:href="#DejaVuSans-6b" x="442.236328"/>
      <use xlink:href="#DejaVuSans-74" x="500.146484"/>
      <use xlink:href="#DejaVuSans-65" x="539.355469"/>
     </g>
    </g>
   </g>
   <g id="matplotlib.axis_2">
    <g id="ytick_1">
     <g id="line2d_13">
      <path d="M 56.9 284.592894 
L 352.48 284.592894 
" clip-path="url(#p34bcd01bca)" style="fill: none; stroke: #ffffff; stroke-width: 0.8; stroke-linecap: square"/>
     </g>
     <g id="line2d_14">
      <defs>
       <path id="mdc0d80652e" d="M 0 0 
L -3.5 0 
" style="stroke: #555555; stroke-width: 0.8"/>
      </defs>
      <g>
       <use xlink:href="#mdc0d80652e" x="56.9" y="284.592894" style="fill: #555555; stroke: #555555; stroke-width: 0.8"/>
      </g>
     </g>
     <g id="text_8">
      <!-- −2.0 -->
      <g style="fill: #555555" transform="translate(25.617188 288.392112) scale(0.1 -0.1)">
       <defs>
        <path id="DejaVuSans-2212" d="M 678 2272 
L 4684 2272 
L 4684 1741 
L 678 1741 
L 678 2272 
z
" transform="scale(0.015625)"/>
        <path id="DejaVuSans-2e" d="M 684 794 
L 1344 794 
L 1344 0 
L 684 0 
L 684 794 
z
" transform="scale(0.015625)"/>
       </defs>
       <use xlink:href="#DejaVuSans-2212"/>
       <use xlink:href="#DejaVuSans-32" x="83.789062"/>
       <use xlink:href="#DejaVuSans-2e" x="147.412109"/>
       <use xlink:href="#DejaVuSans-30" x="179.199219"/>
      </g>
     </g>
    </g>
    <g id="ytick_2">
     <g id="line2d_15">
      <path d="M 56.9 251.265961 
L 352.48 251.265961 
" clip-path="url(#p34bcd01bca)" style="fill: none; stroke: #ffffff; stroke-width: 0.8; stroke-linecap: square"/>
     </g>
     <g id="line2d_16">
      <g>
       <use xlink:href="#mdc0d80652e" x="56.9" y="251.265961" style="fill: #555555; stroke: #555555; stroke-width: 0.8"/>
      </g>
     </g>
     <g id="text_9">
      <!-- −1.5 -->
      <g style="fill: #555555" transform="translate(25.617188 255.06518) scale(0.1 -0.1)">
       <use xlink:href="#DejaVuSans-2212"/>
       <use xlink:href="#DejaVuSans-31" x="83.789062"/>
       <use xlink:href="#DejaVuSans-2e" x="147.412109"/>
       <use xlink:href="#DejaVuSans-35" x="179.199219"/>
      </g>
     </g>
    </g>
    <g id="ytick_3">
     <g id="line2d_17">
      <path d="M 56.9 217.939029 
L 352.48 217.939029 
" clip-path="url(#p34bcd01bca)" style="fill: none; stroke: #ffffff; stroke-width: 0.8; stroke-linecap: square"/>
     </g>
     <g id="line2d_18">
      <g>
       <use xlink:href="#mdc0d80652e" x="56.9" y="217.939029" style="fill: #555555; stroke: #555555; stroke-width: 0.8"/>
      </g>
     </g>
     <g id="text_10">
      <!-- −1.0 -->
      <g style="fill: #555555" transform="translate(25.617188 221.738247) scale(0.1 -0.1)">
       <use xlink:href="#DejaVuSans-2212"/>
       <use xlink:href="#DejaVuSans-31" x="83.789062"/>
       <use xlink:href="#DejaVuSans-2e" x="147.412109"/>
       <use xlink:href="#DejaVuSans-30" x="179.199219"/>
      </g>
     </g>
    </g>
    <g id="ytick_4">
     <g id="line2d_19">
      <path d="M 56.9 184.612096 
L 352.48 184.612096 
" clip-path="url(#p34bcd01bca)" style="fill: none; stroke: #ffffff; stroke-width: 0.8; stroke-linecap: square"/>
     </g>
     <g id="line2d_20">
      <g>
       <use xlink:href="#mdc0d80652e" x="56.9" y="184.612096" style="fill: #555555; stroke: #555555; stroke-width: 0.8"/>
      </g>
     </g>
     <g id="text_11">
      <!-- −0.5 -->
      <g style="fill: #555555" transform="translate(25.617188 188.411315) scale(0.1 -0.1)">
       <use xlink:href="#DejaVuSans-2212"/>
       <use xlink:href="#DejaVuSans-30" x="83.789062"/>
       <use xlink:href="#DejaVuSans-2e" x="147.412109"/>
       <use xlink:href="#DejaVuSans-35" x="179.199219"/>
      </g>
     </g>
    </g>
    <g id="ytick_5">
     <g id="line2d_21">
      <path d="M 56.9 151.285164 
L 352.48 151.285164 
" clip-path="url(#p34bcd01bca)" style="fill: none; stroke: #ffffff; stroke-width: 0.8; stroke-linecap: square"/>
     </g>
     <g id="line2d_22">
      <g>
       <use xlink:href="#mdc0d80652e" x="56.9" y="151.285164" style="fill: #555555; stroke: #555555; stroke-width: 0.8"/>
      </g>
     </g>
     <g id="text_12">
      <!-- 0.0 -->
      <g style="fill: #555555" transform="translate(33.996875 155.084382) scale(0.1 -0.1)">
       <use xlink:href="#DejaVuSans-30"/>
       <use xlink:href="#DejaVuSans-2e" x="63.623047"/>
       <use xlink:href="#DejaVuSans-30" x="95.410156"/>
      </g>
     </g>
    </g>
    <g id="ytick_6">
     <g id="line2d_23">
      <path d="M 56.9 117.958231 
L 352.48 117.958231 
" clip-path="url(#p34bcd01bca)" style="fill: none; stroke: #ffffff; stroke-width: 0.8; stroke-linecap: square"/>
     </g>
     <g id="line2d_24">
      <g>
       <use xlink:href="#mdc0d80652e" x="56.9" y="117.958231" style="fill: #555555; stroke: #555555; stroke-width: 0.8"/>
      </g>
     </g>
     <g id="text_13">
      <!-- 0.5 -->
      <g style="fill: #555555" transform="translate(33.996875 121.75745) scale(0.1 -0.1)">
       <use xlink:href="#DejaVuSans-30"/>
       <use xlink:href="#DejaVuSans-2e" x="63.623047"/>
       <use xlink:href="#DejaVuSans-35" x="95.410156"/>
      </g>
     </g>
    </g>
    <g id="ytick_7">
     <g id="line2d_25">
      <path d="M 56.9 84.631299 
L 352.48 84.631299 
" clip-path="url(#p34bcd01bca)" style="fill: none; stroke: #ffffff; stroke-width: 0.8; stroke-linecap: square"/>
     </g>
     <g id="line2d_26">
      <g>
       <use xlink:href="#mdc0d80652e" x="56.9" y="84.631299" style="fill: #555555; stroke: #555555; stroke-width: 0.8"/>
      </g>
     </g>
     <g id="text_14">
      <!-- 1.0 -->
      <g style="fill: #555555" transform="translate(33.996875 88.430517) scale(0.1 -0.1)">
       <use xlink:href="#DejaVuSans-31"/>
       <use xlink:href="#DejaVuSans-2e" x="63.623047"/>
       <use xlink:href="#DejaVuSans-30" x="95.410156"/>
      </g>
     </g>
    </g>
    <g id="ytick_8">
     <g id="line2d_27">
      <path d="M 56.9 51.304366 
L 352.48 51.304366 
" clip-path="url(#p34bcd01bca)" style="fill: none; stroke: #ffffff; stroke-width: 0.8; stroke-linecap: square"/>
     </g>
     <g id="line2d_28">
      <g>
       <use xlink:href="#mdc0d80652e" x="56.9" y="51.304366" style="fill: #555555; stroke: #555555; stroke-width: 0.8"/>
      </g>
     </g>
     <g id="text_15">
      <!-- 1.5 -->
      <g style="fill: #555555" transform="translate(33.996875 55.103585) scale(0.1 -0.1)">
       <use xlink:href="#DejaVuSans-31"/>
       <use xlink:href="#DejaVuSans-2e" x="63.623047"/>
       <use xlink:href="#DejaVuSans-35" x="95.410156"/>
      </g>
     </g>
    </g>
    <g id="text_16">
     <!-- Gelenkwinkel [rad] -->
     <g style="fill: #555555" transform="translate(19.121562 228.969688) rotate(-90) scale(0.12 -0.12)">
      <defs>
       <path id="DejaVuSans-47" d="M 3809 666 
L 3809 1919 
L 2778 1919 
L 2778 2438 
L 4434 2438 
L 4434 434 
Q 4069 175 3628 42 
Q 3188 -91 2688 -91 
Q 1594 -91 976 548 
Q 359 1188 359 2328 
Q 359 3472 976 4111 
Q 1594 4750 2688 4750 
Q 3144 4750 3555 4637 
Q 3966 4525 4313 4306 
L 4313 3634 
Q 3963 3931 3569 4081 
Q 3175 4231 2741 4231 
Q 1884 4231 1454 3753 
Q 1025 3275 1025 2328 
Q 1025 1384 1454 906 
Q 1884 428 2741 428 
Q 3075 428 3337 486 
Q 3600 544 3809 666 
z
" transform="scale(0.015625)"/>
       <path id="DejaVuSans-6c" d="M 603 4863 
L 1178 4863 
L 1178 0 
L 603 0 
L 603 4863 
z
" transform="scale(0.015625)"/>
       <path id="DejaVuSans-77" d="M 269 3500 
L 844 3500 
L 1563 769 
L 2278 3500 
L 2956 3500 
L 3675 769 
L 4391 3500 
L 4966 3500 
L 4050 0 
L 3372 0 
L 2619 2869 
L 1863 0 
L 1184 0 
L 269 3500 
z
" transform="scale(0.015625)"/>
       <path id="DejaVuSans-69" d="M 603 3500 
L 1178 3500 
L 1178 0 
L 603 0 
L 603 3500 
z
M 603 4863 
L 1178 4863 
L 1178 4134 
L 603 4134 
L 603 4863 
z
" transform="scale(0.015625)"/>
       <path id="DejaVuSans-20" transform="scale(0.015625)"/>
       <path id="DejaVuSans-5b" d="M 550 4863 
L 1875 4863 
L 1875 4416 
L 1125 4416 
L 1125 -397 
L 1875 -397 
L 1875 -844 
L 550 -844 
L 550 4863 
z
" transform="scale(0.015625)"/>
       <path id="DejaVuSans-72" d="M 2631 2963 
Q 2534 3019 2420 3045 
Q 2306 3072 2169 3072 
Q 1681 3072 1420 2755 
Q 1159 2438 1159 1844 
L 1159 0 
L 581 0 
L 581 3500 
L 1159 3500 
L 1159 2956 
Q 1341 3275 1631 3429 
Q 1922 3584 2338 3584 
Q 2397 3584 2469 3576 
Q 2541 3569 2628 3553 
L 2631 2963 
z
" transform="scale(0.015625)"/>
       <path id="DejaVuSans-61" d="M 2194 1759 
Q 1497 1759 1228 1600 
Q 959 1441 959 1056 
Q 959 750 1161 570 
Q 1363 391 1709 391 
Q 2188 391 2477 730 
Q 2766 1069 2766 1631 
L 2766 1759 
L 2194 1759 
z
M 3341 1997 
L 3341 0 
L 2766 0 
L 2766 531 
Q 2569 213 2275 61 
Q 1981 -91 1556 -91 
Q 1019 -91 701 211 
Q 384 513 384 1019 
Q 384 1609 779 1909 
Q 1175 2209 1959 2209 
L 2766 2209 
L 2766 2266 
Q 2766 2663 2505 2880 
Q 2244 3097 1772 3097 
Q 1472 3097 1187 3025 
Q 903 2953 641 2809 
L 641 3341 
Q 956 3463 1253 3523 
Q 1550 3584 1831 3584 
Q 2591 3584 2966 3190 
Q 3341 2797 3341 1997 
z
" transform="scale(0.015625)"/>
       <path id="DejaVuSans-64" d="M 2906 2969 
L 2906 4863 
L 3481 4863 
L 3481 0 
L 2906 0 
L 2906 525 
Q 2725 213 2448 61 
Q 2172 -91 1784 -91 
Q 1150 -91 751 415 
Q 353 922 353 1747 
Q 353 2572 751 3078 
Q 1150 3584 1784 3584 
Q 2172 3584 2448 3432 
Q 2725 3281 2906 2969 
z
M 947 1747 
Q 947 1113 1208 752 
Q 1469 391 1925 391 
Q 2381 391 2643 752 
Q 2906 1113 2906 1747 
Q 2906 2381 2643 2742 
Q 2381 3103 1925 3103 
Q 1469 3103 1208 2742 
Q 947 2381 947 1747 
z
" transform="scale(0.015625)"/>
       <path id="DejaVuSans-5d" d="M 1947 4863 
L 1947 -844 
L 622 -844 
L 622 -397 
L 1369 -397 
L 1369 4416 
L 622 4416 
L 622 4863 
L 1947 4863 
z
" transform="scale(0.015625)"/>
      </defs>
      <use xlink:href="#DejaVuSans-47"/>
      <use xlink:href="#DejaVuSans-65" x="77.490234"/>
      <use xlink:href="#DejaVuSans-6c" x="139.013672"/>
      <use xlink:href="#DejaVuSans-65" x="166.796875"/>
      <use xlink:href="#DejaVuSans-6e" x="228.320312"/>
      <use xlink:href="#DejaVuSans-6b" x="291.699219"/>
      <use xlink:href="#DejaVuSans-77" x="349.609375"/>
      <use xlink:href="#DejaVuSans-69" x="431.396484"/>
      <use xlink:href="#DejaVuSans-6e" x="459.179688"/>
      <use xlink:href="#DejaVuSans-6b" x="522.558594"/>
      <use xlink:href="#DejaVuSans-65" x="576.84375"/>
      <use xlink:href="#DejaVuSans-6c" x="638.367188"/>
      <use xlink:href="#DejaVuSans-20" x="666.150391"/>
      <use xlink:href="#DejaVuSans-5b" x="697.9375"/>
      <use xlink:href="#DejaVuSans-72" x="736.951172"/>
      <use xlink:href="#DejaVuSans-61" x="778.064453"/>
      <use xlink:href="#DejaVuSans-64" x="839.34375"/>
      <use xlink:href="#DejaVuSans-5d" x="902.820312"/>
     </g>
    </g>
   </g>
   <g id="line2d_29">
    <path d="M 70.335455 151.152489 
L 72.118458 151.150092 
L 74.530757 151.150092 
L 76.051553 151.259577 
L 77.15282 151.268389 
L 78.306528 151.162074 
L 79.879767 150.812801 
L 82.606713 149.704997 
L 84.809246 148.339008 
L 86.120278 147.327908 
L 87.326428 146.270454 
L 89.109431 144.465601 
L 90.682669 142.652762 
L 93.252292 139.229251 
L 95.559708 135.65699 
L 97.447593 132.398855 
L 99.597686 128.306904 
L 105.575991 116.518439 
L 108.670026 111.537425 
L 110.662795 108.759516 
L 112.603122 106.394087 
L 115.01542 103.90242 
L 118.109456 101.449071 
L 120.521754 100.107696 
L 122.671847 99.336286 
L 125.608558 98.948569 
L 132.2686 98.940579 
L 135.939489 98.939781 
L 143.281267 98.938184 
L 144.749623 98.940579 
L 150.937694 98.743127 
L 152.458491 98.356212 
L 153.717081 97.896606 
L 155.552526 96.966908 
L 156.758675 96.197894 
L 158.489237 94.878909 
L 161.163742 92.325686 
L 163.261393 89.891582 
L 165.20172 87.288833 
L 167.089606 84.457477 
L 169.29214 80.762103 
L 171.284908 77.046761 
L 173.802089 71.891965 
L 176.424153 66.702939 
L 178.836452 62.444417 
L 181.982928 57.660934 
L 183.71349 55.391156 
L 186.125789 52.657855 
L 188.013675 50.882033 
L 189.954002 49.369192 
L 191.369916 48.466125 
L 192.943154 47.682156 
L 194.673717 47.057977 
L 196.45672 46.683192 
L 197.610428 46.596869 
L 201.019111 46.589686 
L 230.071577 46.697573 
L 232.378993 47.264162 
L 234.109555 47.985025 
L 237.046266 49.811946 
L 238.776828 51.233681 
L 240.979362 53.424271 
L 243.444102 56.367786 
L 245.331988 58.985254 
L 248.216258 63.576155 
L 250.943204 68.578059 
L 252.621325 71.980679 
L 257.34104 82.018661 
L 270.398917 109.824288 
L 274.017365 117.525644 
L 278.474873 126.979158 
L 281.20182 132.261364 
L 283.456794 136.131824 
L 285.659328 139.486638 
L 288.333833 143.011645 
L 290.221719 145.117818 
L 292.266929 147.048954 
L 294.312138 148.620359 
L 295.675611 149.466008 
L 297.353732 150.284473 
L 298.769647 150.79041 
L 300.605091 151.181245 
L 302.492977 151.277176 
L 309.153019 151.286741 
L 336.842012 151.178849 
L 338.362809 150.859156 
L 339.044545 150.655339 
L 339.044545 150.655339 
" clip-path="url(#p34bcd01bca)" style="fill: none; stroke: #e24a33; stroke-width: 1.5; stroke-linecap: square"/>
   </g>
   <g id="line2d_30">
    <path d="M 70.335455 255.997618 
L 73.953902 255.998412 
L 76.575966 255.988814 
L 85.700748 256.236658 
L 86.802015 256.308583 
L 89.528961 256.503667 
L 92.203466 256.736287 
L 97.028063 257.286293 
L 105.890639 258.52224 
L 111.71162 259.12259 
L 113.284858 259.255316 
L 117.427719 259.524709 
L 126.395177 259.691824 
L 127.391561 259.341638 
L 128.650152 258.467065 
L 129.541654 257.574088 
L 130.590479 256.194259 
L 131.691746 254.381927 
L 133.264984 251.177021 
L 135.887048 245.449939 
L 139.138407 238.001012 
L 144.120328 226.416475 
L 145.378918 224.442049 
L 146.165538 223.512459 
L 147.214363 222.624377 
L 148.053423 222.239103 
L 148.944925 222.135999 
L 151.409665 222.137588 
L 198.764136 222.245492 
L 199.393431 222.522862 
L 200.075168 222.987276 
L 201.019111 223.914514 
L 202.120378 225.429231 
L 203.221644 227.365294 
L 204.794883 230.840166 
L 206.158356 233.971304 
L 207.416946 236.20241 
L 208.780419 237.971485 
L 209.776804 238.841228 
L 210.615864 239.320866 
L 211.454924 239.558285 
L 212.50375 239.55908 
L 213.395252 239.455149 
L 215.125814 238.979548 
L 217.223465 238.096965 
L 220.369941 236.728419 
L 222.467592 236.263147 
L 225.456745 236.148029 
L 229.442282 236.160043 
L 232.378993 236.180003 
L 242.709924 236.443039 
L 244.17828 236.512549 
L 245.594194 236.574907 
L 247.167432 236.657257 
L 255.925125 237.216034 
L 257.917894 237.354322 
L 263.10958 237.718016 
L 275.590603 238.588617 
L 276.901635 238.682122 
L 278.212667 238.76924 
L 279.838346 238.8828 
L 281.306702 238.965119 
L 282.722617 239.049852 
L 285.921534 239.207337 
L 287.704538 239.286477 
L 295.308522 239.522307 
L 303.069831 239.738146 
L 304.066215 240.21219 
L 305.010158 240.974061 
L 306.006542 242.105188 
L 307.002927 243.532151 
L 308.418841 246.127871 
L 313.033673 255.594704 
L 314.292264 257.356629 
L 315.393531 258.498244 
L 316.127708 259.055464 
L 316.809445 259.424783 
L 318.068036 259.737369 
L 318.907096 259.72456 
L 320.375452 259.508754 
L 322.315779 258.892353 
L 325.724462 257.319887 
L 327.087935 256.774649 
L 328.923379 256.273399 
L 330.286853 256.095128 
L 335.163891 255.98001 
L 338.205485 256.007216 
L 339.044545 256.026381 
L 339.044545 256.026381 
" clip-path="url(#p34bcd01bca)" style="fill: none; stroke: #348abd; stroke-width: 1.5; stroke-linecap: square"/>
   </g>
   <g id="line2d_31">
    <path d="M 70.335455 256.041796 
L 78.411411 256.025809 
L 82.029859 256.46788 
L 85.176335 257.203307 
L 86.854456 257.719718 
L 88.113047 258.173008 
L 93.252292 260.56163 
L 96.031679 262.207674 
L 99.912333 264.938536 
L 101.485572 266.182493 
L 107.621201 270.443645 
L 109.981058 271.75638 
L 112.760446 273.07474 
L 118.476545 274.963161 
L 120.154665 275.309342 
L 123.877996 275.771436 
L 125.660999 275.82499 
L 126.762266 276.003293 
L 127.915974 276.600528 
L 128.912358 277.462389 
L 130.013625 278.744771 
L 130.852685 279.98485 
L 132.006393 281.986037 
L 137.565169 292.510323 
L 141.078734 298.237436 
L 142.389766 300.163584 
L 144.015445 302.005729 
L 145.169153 302.945204 
L 146.113096 303.492873 
L 147.319246 303.94861 
L 148.73516 304.139706 
L 199.131225 304.041353 
L 200.704463 303.470482 
L 201.700847 302.869242 
L 202.906997 301.870619 
L 203.955822 300.716863 
L 205.371737 298.749969 
L 206.577886 297.154906 
L 208.046242 295.5894 
L 209.19995 294.677863 
L 210.353658 294.086222 
L 211.66469 293.810377 
L 212.50375 293.758411 
L 213.605017 293.386645 
L 214.653842 292.709412 
L 215.859991 291.523682 
L 216.908817 290.130886 
L 218.062525 288.188783 
L 219.635763 284.928288 
L 223.726183 276.494182 
L 225.037215 274.670503 
L 226.08604 273.622394 
L 227.082424 272.97402 
L 227.659278 272.762122 
L 228.603221 272.673384 
L 234.371761 272.962006 
L 240.08786 273.856635 
L 241.503775 274.157271 
L 242.5526 274.409088 
L 250.680998 276.998674 
L 260.067986 280.986619 
L 261.746107 281.709397 
L 268.353707 284.542919 
L 269.035444 284.833956 
L 273.702717 286.844774 
L 281.62135 290.108479 
L 286.760595 291.717972 
L 291.952281 292.873285 
L 300.028237 293.751197 
L 303.489361 293.603278 
L 304.747952 293.006838 
L 305.954101 292.073783 
L 307.317574 290.569015 
L 308.418841 288.96912 
L 309.834756 286.452984 
L 313.190997 280.394184 
L 314.239823 278.961468 
L 315.183766 277.937291 
L 316.389915 277.011483 
L 317.176534 276.642895 
L 318.120477 276.465418 
L 319.221744 276.364666 
L 320.008363 276.092858 
L 321.162071 275.413241 
L 322.158455 274.552207 
L 323.154839 273.39934 
L 324.256106 271.799541 
L 325.619579 269.2876 
L 330.706383 259.426467 
L 331.912532 257.846024 
L 333.118681 256.739656 
L 334.115066 256.188062 
L 334.796802 256.014622 
L 335.426098 255.993835 
L 337.681072 256.07056 
L 339.044545 256.215236 
L 339.044545 256.215236 
" clip-path="url(#p34bcd01bca)" style="fill: none; stroke: #988ed5; stroke-width: 1.5; stroke-linecap: square"/>
   </g>
   <g id="line2d_32">
    <path d="M 70.335455 151.221709 
L 75.736906 151.250488 
L 76.838173 151.279276 
L 79.040706 151.168989 
L 80.456621 150.995549 
L 83.70798 150.288964 
L 86.015396 149.541594 
L 88.794783 148.363325 
L 92.518114 146.312016 
L 96.08412 143.841544 
L 98.758625 141.66907 
L 106.100404 135.20637 
L 109.299322 132.952293 
L 111.029884 131.896365 
L 112.550681 131.069188 
L 116.274011 129.427514 
L 120.836402 128.148191 
L 124.297526 127.729752 
L 129.436771 127.541755 
L 130.328273 127.500143 
L 132.2686 127.492928 
L 133.369867 127.619369 
L 134.261368 127.79617 
L 136.096813 128.385857 
L 138.194464 129.461109 
L 139.715261 130.53799 
L 141.760471 132.390695 
L 144.434976 135.009593 
L 146.008214 136.142985 
L 147.476569 136.784438 
L 148.73516 136.96599 
L 156.758675 136.979594 
L 160.482006 136.975605 
L 167.614019 136.973976 
L 171.180026 136.975605 
L 198.973901 136.870808 
L 200.18005 136.473306 
L 201.753289 135.535897 
L 202.959438 134.560873 
L 204.532676 133.073061 
L 205.896149 131.797965 
L 207.207181 130.948372 
L 208.675537 130.330749 
L 209.986569 130.005942 
L 211.507366 129.859565 
L 212.661074 129.960357 
L 213.34281 130.275557 
L 214.076988 130.82039 
L 215.020931 131.822772 
L 216.22708 133.611402 
L 217.380788 135.821443 
L 218.534496 138.51353 
L 222.152944 147.541535 
L 223.096887 149.478441 
L 223.935948 150.929972 
L 224.879891 152.25517 
L 225.876275 153.314118 
L 226.9251 154.04856 
L 227.659278 154.330666 
L 228.655662 154.417021 
L 232.588758 154.254768 
L 233.427818 154.173245 
L 236.888943 153.693734 
L 239.982978 153.06478 
L 242.395276 152.440593 
L 246.852785 150.965943 
L 250.576115 149.431259 
L 257.183716 146.188904 
L 259.176484 145.191958 
L 279.943229 134.863217 
L 283.299471 133.465025 
L 285.606887 132.630704 
L 289.802189 131.399565 
L 294.417021 130.456363 
L 297.983027 130.02436 
L 300.867298 129.868345 
L 303.43692 129.757939 
L 306.373631 129.063487 
L 307.579781 128.642672 
L 309.572549 127.965018 
L 311.355552 127.615373 
L 313.138556 127.530552 
L 319.169302 127.821787 
L 320.113245 128.265844 
L 321.004747 128.980287 
L 322.210896 130.381975 
L 323.364604 132.195539 
L 324.623195 134.688847 
L 327.350141 141.030962 
L 329.395351 145.586083 
L 330.6015 147.707808 
L 331.755208 149.275419 
L 332.699151 150.225016 
L 333.747977 150.928375 
L 334.639478 151.231323 
L 335.373656 151.278473 
L 337.681072 151.172985 
L 339.044545 151.002739 
L 339.044545 151.002739 
" clip-path="url(#p34bcd01bca)" style="fill: none; stroke: #777777; stroke-width: 1.5; stroke-linecap: square"/>
   </g>
   <g id="line2d_33">
    <path d="M 70.335455 46.589884 
L 72.118458 46.587485 
L 74.530757 46.589082 
L 76.943055 46.587485 
L 84.12751 46.588287 
L 86.59225 46.58669 
L 88.060605 46.589082 
L 91.679053 46.588287 
L 95.297501 46.589884 
L 97.185387 46.585888 
L 100.908718 46.588287 
L 108.145614 46.588287 
L 115.434951 46.587485 
L 153.612199 46.477206 
L 165.096838 45.310561 
L 167.771343 44.851877 
L 169.397022 44.544241 
L 172.019086 43.991279 
L 174.483826 43.427083 
L 177.840067 42.723041 
L 182.350017 41.943069 
L 186.859967 41.369282 
L 190.321091 41.059199 
L 198.606812 40.791458 
L 199.603196 40.92892 
L 200.861787 41.268585 
L 202.539908 42.020604 
L 203.693616 42.740641 
L 204.847324 43.607682 
L 206.944975 45.127563 
L 208.937743 46.066473 
L 209.829245 46.338163 
L 211.66469 46.56507 
L 220.369941 46.592252 
L 224.145713 46.589884 
L 231.43505 46.589884 
L 238.776828 46.588287 
L 240.612273 46.589082 
L 247.691845 46.590679 
L 249.160201 46.589082 
L 339.044545 46.589884 
L 339.044545 46.589884 
" clip-path="url(#p34bcd01bca)" style="fill: none; stroke: #fbc15e; stroke-width: 1.5; stroke-linecap: square"/>
   </g>
   <g id="line2d_34">
    <path d="M 70.335455 151.289157 
L 77.624792 151.288362 
L 84.861688 151.289951 
L 87.273986 151.287536 
L 89.686285 151.287536 
L 339.044545 151.289157 
L 339.044545 151.289157 
" clip-path="url(#p34bcd01bca)" style="fill: none; stroke: #8eba42; stroke-width: 1.5; stroke-linecap: square"/>
   </g>
   <g id="patch_3">
    <path d="M 56.9 317.32 
L 56.9 27.6 
" style="fill: none; stroke: #ffffff; stroke-linejoin: miter; stroke-linecap: square"/>
   </g>
   <g id="patch_4">
    <path d="M 352.48 317.32 
L 352.48 27.6 
" style="fill: none; stroke: #ffffff; stroke-linejoin: miter; stroke-linecap: square"/>
   </g>
   <g id="patch_5">
    <path d="M 56.9 317.32 
L 352.48 317.32 
" style="fill: none; stroke: #ffffff; stroke-linejoin: miter; stroke-linecap: square"/>
   </g>
   <g id="patch_6">
    <path d="M 56.9 27.6 
L 352.48 27.6 
" style="fill: none; stroke: #ffffff; stroke-linejoin: miter; stroke-linecap: square"/>
   </g>
   <g id="text_17">
    <!-- Gelenkwinkel UR3 -->
    <g transform="translate(139.58625 21.6) scale(0.144 -0.144)">
     <defs>
      <path id="DejaVuSans-55" d="M 556 4666 
L 1191 4666 
L 1191 1831 
Q 1191 1081 1462 751 
Q 1734 422 2344 422 
Q 2950 422 3222 751 
Q 3494 1081 3494 1831 
L 3494 4666 
L 4128 4666 
L 4128 1753 
Q 4128 841 3676 375 
Q 3225 -91 2344 -91 
Q 1459 -91 1007 375 
Q 556 841 556 1753 
L 556 4666 
z
" transform="scale(0.015625)"/>
      <path id="DejaVuSans-52" d="M 2841 2188 
Q 3044 2119 3236 1894 
Q 3428 1669 3622 1275 
L 4263 0 
L 3584 0 
L 2988 1197 
Q 2756 1666 2539 1819 
Q 2322 1972 1947 1972 
L 1259 1972 
L 1259 0 
L 628 0 
L 628 4666 
L 2053 4666 
Q 2853 4666 3247 4331 
Q 3641 3997 3641 3322 
Q 3641 2881 3436 2590 
Q 3231 2300 2841 2188 
z
M 1259 4147 
L 1259 2491 
L 2053 2491 
Q 2509 2491 2742 2702 
Q 2975 2913 2975 3322 
Q 2975 3731 2742 3939 
Q 2509 4147 2053 4147 
L 1259 4147 
z
" transform="scale(0.015625)"/>
     </defs>
     <use xlink:href="#DejaVuSans-47"/>
     <use xlink:href="#DejaVuSans-65" x="77.490234"/>
     <use xlink:href="#DejaVuSans-6c" x="139.013672"/>
     <use xlink:href="#DejaVuSans-65" x="166.796875"/>
     <use xlink:href="#DejaVuSans-6e" x="228.320312"/>
     <use xlink:href="#DejaVuSans-6b" x="291.699219"/>
     <use xlink:href="#DejaVuSans-77" x="349.609375"/>
     <use xlink:href="#DejaVuSans-69" x="431.396484"/>
     <use xlink:href="#DejaVuSans-6e" x="459.179688"/>
     <use xlink:href="#DejaVuSans-6b" x="522.558594"/>
     <use xlink:href="#DejaVuSans-65" x="576.84375"/>
     <use xlink:href="#DejaVuSans-6c" x="638.367188"/>
     <use xlink:href="#DejaVuSans-20" x="666.150391"/>
     <use xlink:href="#DejaVuSans-55" x="697.9375"/>
     <use xlink:href="#DejaVuSans-52" x="771.130859"/>
     <use xlink:href="#DejaVuSans-33" x="840.613281"/>
    </g>
   </g>
   <g id="legend_1">
    <g id="patch_7">
     <path d="M 346.701 212.58475 
L 423.202562 212.58475 
Q 425.202562 212.58475 425.202562 210.58475 
L 425.202562 123.516 
Q 425.202562 121.516 423.202562 121.516 
L 346.701 121.516 
Q 344.701 121.516 344.701 123.516 
L 344.701 210.58475 
Q 344.701 212.58475 346.701 212.58475 
z
" style="fill: #454545; opacity: 0.5; stroke: #454545; stroke-width: 0.5; stroke-linejoin: miter"/>
    </g>
    <g id="patch_8">
     <path d="M 344.701 210.58475 
L 421.202562 210.58475 
Q 423.202562 210.58475 423.202562 208.58475 
L 423.202562 121.516 
Q 423.202562 119.516 421.202562 119.516 
L 344.701 119.516 
Q 342.701 119.516 342.701 121.516 
L 342.701 208.58475 
Q 342.701 210.58475 344.701 210.58475 
z
" style="fill: #e5e5e5; stroke: #cccccc; stroke-width: 0.5; stroke-linejoin: miter"/>
    </g>
    <g id="line2d_35">
     <path d="M 346.701 127.614438 
L 356.701 127.614438 
L 366.701 127.614438 
" style="fill: none; stroke: #e24a33; stroke-width: 1.5; stroke-linecap: square"/>
    </g>
    <g id="text_18">
     <!-- Gelenk 1 -->
     <g transform="translate(374.701 131.114438) scale(0.1 -0.1)">
      <use xlink:href="#DejaVuSans-47"/>
      <use xlink:href="#DejaVuSans-65" x="77.490234"/>
      <use xlink:href="#DejaVuSans-6c" x="139.013672"/>
      <use xlink:href="#DejaVuSans-65" x="166.796875"/>
      <use xlink:href="#DejaVuSans-6e" x="228.320312"/>
      <use xlink:href="#DejaVuSans-6b" x="291.699219"/>
      <use xlink:href="#DejaVuSans-20" x="349.609375"/>
      <use xlink:href="#DejaVuSans-31" x="381.396484"/>
     </g>
    </g>
    <g id="line2d_36">
     <path d="M 346.701 142.292563 
L 356.701 142.292563 
L 366.701 142.292563 
" style="fill: none; stroke: #348abd; stroke-width: 1.5; stroke-linecap: square"/>
    </g>
    <g id="text_19">
     <!-- Gelenk 2 -->
     <g transform="translate(374.701 145.792563) scale(0.1 -0.1)">
      <use xlink:href="#DejaVuSans-47"/>
      <use xlink:href="#DejaVuSans-65" x="77.490234"/>
      <use xlink:href="#DejaVuSans-6c" x="139.013672"/>
      <use xlink:href="#DejaVuSans-65" x="166.796875"/>
      <use xlink:href="#DejaVuSans-6e" x="228.320312"/>
      <use xlink:href="#DejaVuSans-6b" x="291.699219"/>
      <use xlink:href="#DejaVuSans-20" x="349.609375"/>
      <use xlink:href="#DejaVuSans-32" x="381.396484"/>
     </g>
    </g>
    <g id="line2d_37">
     <path d="M 346.701 156.970687 
L 356.701 156.970687 
L 366.701 156.970687 
" style="fill: none; stroke: #988ed5; stroke-width: 1.5; stroke-linecap: square"/>
    </g>
    <g id="text_20">
     <!-- Gelenk 3 -->
     <g transform="translate(374.701 160.470687) scale(0.1 -0.1)">
      <use xlink:href="#DejaVuSans-47"/>
      <use xlink:href="#DejaVuSans-65" x="77.490234"/>
      <use xlink:href="#DejaVuSans-6c" x="139.013672"/>
      <use xlink:href="#DejaVuSans-65" x="166.796875"/>
      <use xlink:href="#DejaVuSans-6e" x="228.320312"/>
      <use xlink:href="#DejaVuSans-6b" x="291.699219"/>
      <use xlink:href="#DejaVuSans-20" x="349.609375"/>
      <use xlink:href="#DejaVuSans-33" x="381.396484"/>
     </g>
    </g>
    <g id="line2d_38">
     <path d="M 346.701 171.648813 
L 356.701 171.648813 
L 366.701 171.648813 
" style="fill: none; stroke: #777777; stroke-width: 1.5; stroke-linecap: square"/>
    </g>
    <g id="text_21">
     <!-- Gelenk 4 -->
     <g transform="translate(374.701 175.148813) scale(0.1 -0.1)">
      <use xlink:href="#DejaVuSans-47"/>
      <use xlink:href="#DejaVuSans-65" x="77.490234"/>
      <use xlink:href="#DejaVuSans-6c" x="139.013672"/>
      <use xlink:href="#DejaVuSans-65" x="166.796875"/>
      <use xlink:href="#DejaVuSans-6e" x="228.320312"/>
      <use xlink:href="#DejaVuSans-6b" x="291.699219"/>
      <use xlink:href="#DejaVuSans-20" x="349.609375"/>
      <use xlink:href="#DejaVuSans-34" x="381.396484"/>
     </g>
    </g>
    <g id="line2d_39">
     <path d="M 346.701 186.326938 
L 356.701 186.326938 
L 366.701 186.326938 
" style="fill: none; stroke: #fbc15e; stroke-width: 1.5; stroke-linecap: square"/>
    </g>
    <g id="text_22">
     <!-- Gelenk 5 -->
     <g transform="translate(374.701 189.826938) scale(0.1 -0.1)">
      <use xlink:href="#DejaVuSans-47"/>
      <use xlink:href="#DejaVuSans-65" x="77.490234"/>
      <use xlink:href="#DejaVuSans-6c" x="139.013672"/>
      <use xlink:href="#DejaVuSans-65" x="166.796875"/>
      <use xlink:href="#DejaVuSans-6e" x="228.320312"/>
      <use xlink:href="#DejaVuSans-6b" x="291.699219"/>
      <use xlink:href="#DejaVuSans-20" x="349.609375"/>
      <use xlink:href="#DejaVuSans-35" x="381.396484"/>
     </g>
    </g>
    <g id="line2d_40">
     <path d="M 346.701 201.005063 
L 356.701 201.005063 
L 366.701 201.005063 
" style="fill: none; stroke: #8eba42; stroke-width: 1.5; stroke-linecap: square"/>
    </g>
    <g id="text_23">
     <!-- Gelenk 6 -->
     <g transform="translate(374.701 204.505063) scale(0.1 -0.1)">
      <defs>
       <path id="DejaVuSans-36" d="M 2113 2584 
Q 1688 2584 1439 2293 
Q 1191 2003 1191 1497 
Q 1191 994 1439 701 
Q 1688 409 2113 409 
Q 2538 409 2786 701 
Q 3034 994 3034 1497 
Q 3034 2003 2786 2293 
Q 2538 2584 2113 2584 
z
M 3366 4563 
L 3366 3988 
Q 3128 4100 2886 4159 
Q 2644 4219 2406 4219 
Q 1781 4219 1451 3797 
Q 1122 3375 1075 2522 
Q 1259 2794 1537 2939 
Q 1816 3084 2150 3084 
Q 2853 3084 3261 2657 
Q 3669 2231 3669 1497 
Q 3669 778 3244 343 
Q 2819 -91 2113 -91 
Q 1303 -91 875 529 
Q 447 1150 447 2328 
Q 447 3434 972 4092 
Q 1497 4750 2381 4750 
Q 2619 4750 2861 4703 
Q 3103 4656 3366 4563 
z
" transform="scale(0.015625)"/>
      </defs>
      <use xlink:href="#DejaVuSans-47"/>
      <use xlink:href="#DejaVuSans-65" x="77.490234"/>
      <use xlink:href="#DejaVuSans-6c" x="139.013672"/>
      <use xlink:href="#DejaVuSans-65" x="166.796875"/>
      <use xlink:href="#DejaVuSans-6e" x="228.320312"/>
      <use xlink:href="#DejaVuSans-6b" x="291.699219"/>
      <use xlink:href="#DejaVuSans-20" x="349.609375"/>
      <use xlink:href="#DejaVuSans-36" x="381.396484"/>
     </g>
    </g>
   </g>
  </g>
 </g>
 <defs>
  <clipPath id="p34bcd01bca">
   <rect x="56.9" y="27.6" width="295.58" height="289.72"/>
  </clipPath>
 </defs>
</svg>
